<?xml version="1.0" encoding="utf-8"?>
<!-- Generator: Adobe Illustrator 17.1.0, SVG Export Plug-In . SVG Version: 6.00 Build 0)  -->
<!DOCTYPE svg PUBLIC "-//W3C//DTD SVG 1.1//EN" "http://www.w3.org/Graphics/SVG/1.1/DTD/svg11.dtd">
<svg version="1.1" id="Layer_1" xmlns="http://www.w3.org/2000/svg" xmlns:xlink="http://www.w3.org/1999/xlink" x="0px" y="0px"
	 viewBox="0 0 500 500" enable-background="new 0 0 500 500" xml:space="preserve">
<path fill="#36589B" d="M250.2,1.4C112.9,1.4,1.6,112.7,1.6,250s111.3,248.6,248.6,248.6S498.8,387.3,498.8,250
	C498.7,112.7,387.5,1.4,250.2,1.4z M303.4,250.1h-34.8c0,55.7,0,124.2,0,124.2H217c0,0,0-67.9,0-124.2h-24.6v-43.9H217v-28.4
	c0-20.3,9.7-52.1,52.1-52.1l38.2,0.2v42.6c0,0-23.2,0-27.8,0c-4.5,0-11,2.2-11,12v25.8h39.4L303.4,250.1z"/>
</svg>
