<?xml version="1.0" encoding="utf-8"?>
<!-- Generator: Adobe Illustrator 17.1.0, SVG Export Plug-In . SVG Version: 6.00 Build 0)  -->
<!DOCTYPE svg PUBLIC "-//W3C//DTD SVG 1.1//EN" "http://www.w3.org/Graphics/SVG/1.1/DTD/svg11.dtd">
<svg version="1.1" id="Layer_1" xmlns="http://www.w3.org/2000/svg" xmlns:xlink="http://www.w3.org/1999/xlink" x="0px" y="0px"
	 viewBox="0 0 500 500" enable-background="new 0 0 500 500" xml:space="preserve">
<g>
	<path fill="#DA4B39" d="M200,139.1c-19.5-0.6-32.6,19-29.2,44.6c3.4,25.6,21.9,43.5,41.4,44.1s30.7-15.9,27.3-41.5
		C236.2,160.7,219.5,139.7,200,139.1z"/>
	<path fill="#DA4B39" d="M208.2,280.1c-29-0.3-53.6,18.3-53.6,40c0,22.1,21,40.4,50,40.4c40.8,0,55-17.2,55-39.3
		c0-2.7-0.3-5.3-0.9-7.8c-3.2-12.5-15.9-19.3-31.7-30.3C221.3,281.3,215,280.2,208.2,280.1z"/>
	<path fill="#DA4B39" d="M249.8,4.8C114.4,4.8,4.6,114.6,4.6,250c0,135.5,109.8,245.2,245.2,245.2S495,385.4,495,250
		C495.1,114.6,385.3,4.8,249.8,4.8z M268.6,185.2c0,16-8.8,28.9-21.3,38.6c-12.2,9.6-14.5,13.5-14.5,21.6c0,6.9,14.6,17.2,21.3,22.2
		c23.3,17.5,28.1,28.5,28.1,50.4c0,27.3-29.4,54.5-77.3,54.5c-42,0-77.4-17.1-77.4-44.4c0-27.7,29.4-56.6,71.4-56.6
		c4.6,0,8.8-0.1,13.1-0.1c-5.7-5.6-10.4-10.4-10.4-18.8c0-5,1.6-9.8,3.8-14.1c-2.3,0.2-4.6,0.3-7,0.3c-34.5,0-54.6-24.2-54.6-54.6
		c0-29.8,30.6-56.8,67.3-56.8c18.9,0,72.3,0,72.3,0l-16.2,17h-19C261.5,152,268.6,167.8,268.6,185.2z M372.4,180.8h-33.3v33.3h-16.7
		v-33.3h-33.3v-16.7h33.3v-33.3H339v33.3h33.3L372.4,180.8z"/>
</g>
</svg>
