<?xml version="1.0" encoding="utf-8"?>
<!-- Generator: Adobe Illustrator 17.1.0, SVG Export Plug-In . SVG Version: 6.00 Build 0)  -->
<!DOCTYPE svg PUBLIC "-//W3C//DTD SVG 1.1//EN" "http://www.w3.org/Graphics/SVG/1.1/DTD/svg11.dtd">
<svg version="1.1" id="Layer_1" xmlns="http://www.w3.org/2000/svg" xmlns:xlink="http://www.w3.org/1999/xlink" x="0px" y="0px"
	 viewBox="0 0 500 500" enable-background="new 0 0 500 500" xml:space="preserve">
<path fill="#31AAE1" d="M249.7,5.5C114.7,5.5,5.2,115,5.2,250c0,135.1,109.5,244.5,244.5,244.5S494.2,385,494.2,250
	C494.3,115,384.8,5.5,249.7,5.5z M347,200.1c0.1,2.2,0.1,4.3,0.1,6.5c0,66.3-50.5,142.8-142.8,142.8c-28.3,0-54.7-8.3-76.9-22.5
	c3.9,0.4,7.9,0.7,12,0.7c23.5,0,45.1-8,62.3-21.5c-21.9-0.4-40.5-14.9-46.9-34.8c3.1,0.6,6.2,0.9,9.4,0.9c4.6,0,9-0.6,13.2-1.8
	c-22.9-4.6-40.2-24.9-40.2-49.2c0-0.2,0-0.4,0-0.6c6.8,3.8,14.5,6,22.7,6.3c-13.5-9-22.3-24.4-22.3-41.8c0-9.2,2.5-17.8,6.8-25.2
	c24.7,30.4,61.7,50.3,103.4,52.4c-0.9-3.7-1.3-7.5-1.3-11.4c0-27.7,22.5-50.2,50.2-50.2c14.4,0,27.5,6.1,36.6,15.8
	c11.4-2.2,22.2-6.4,31.9-12.2c-3.8,11.7-11.7,21.6-22.1,27.8c10.2-1.2,19.8-3.9,28.8-7.9C365.3,184.2,356.8,193.1,347,200.1z"/>
</svg>
