<?xml version="1.0" encoding="utf-8"?>
<!-- Generator: Adobe Illustrator 17.1.0, SVG Export Plug-In . SVG Version: 6.00 Build 0)  -->
<!DOCTYPE svg PUBLIC "-//W3C//DTD SVG 1.1//EN" "http://www.w3.org/Graphics/SVG/1.1/DTD/svg11.dtd">
<svg version="1.1" id="Layer_1" xmlns="http://www.w3.org/2000/svg" xmlns:xlink="http://www.w3.org/1999/xlink" x="0px" y="0px"
	 viewBox="0 0 346.3 96" enable-background="new 0 0 346.3 96" xml:space="preserve">
<g>
	<g>
		<g>
			<path d="M47.1,4.5c-23.7,0-43,19.3-43,43c0,15,7.7,28.2,19.3,35.9c8.4-5.6,9.8-20.3,9.8-20.5l1.4-13.8l-3.1,2.2c0,0-0.1,0-0.1,0
				c0,0-0.1-0.1-0.1-0.1v-0.7c0,0,0-0.1,0.1-0.1l3.4-2.6l0.7-7.5c1.3-13.2,9.5-13.8,9.6-13.8c0.4-0.1,0.8-0.1,1.2-0.1
				c4.4,0,4.8,4.7,4.8,4.8c0,0,0,0.1-0.1,0.1l-2.8,2.1c0,0-0.1,0-0.1,0c0,0-0.1-0.1-0.1-0.1c0-0.1-1-5.4-3.5-5.4
				c-1.5,0-4.4,2.6-6.1,17.2l3-2.3c0,0,0.1,0,0.1,0c0,0,0.1,0.1,0.1,0.1v0.9c0,0,0,0.1-0.1,0.1l-3.4,2.5l0,0.4L36.5,63
				c0,0.2-1.4,16.4-11.6,21.5c6.5,3.9,14,6.1,22.1,6.1c23.8,0,43-19.3,43-43C90.1,23.8,70.8,4.5,47.1,4.5z M64.8,47.8
				c0,0.1-0.1,4.8-0.1,7c-0.1,2.2-0.8,2.7-0.8,2.8c0,0-5.2,4.4-8,6.6c-0.6,0.5-1.1,0.7-1.7,0.7c-1.6,0-2.4-1.9-2.7-2.8
				c-0.1-0.1-0.1-0.2-0.1-0.3c-0.1-0.1-0.1-0.2-0.2-0.2c-0.1,0-0.1,0-0.2,0.1c-0.1,0.1-0.6,0.9-2.4,2c-0.9,0.5-1.7,0.8-2.4,0.8
				c-2.3,0-2.7-3.1-2.8-4.1c-0.2-1.7,0.6-8.1,0.9-10.8l0.1-0.7c0-0.4,0-0.7-0.1-0.9c-0.1-0.1-0.3-0.2-0.5-0.2
				c-0.5,0-1.1,0.3-1.1,0.3l-2.3,1.7c0,0-0.1,0-0.1,0c0,0-0.1-0.1-0.1-0.1v-0.8c0,0,0-0.2,0.1-0.3l7.8-5.7c0,0,0.1,0,0.1,0
				c0,0,0.1,0.1,0.1,0.1v0.9c0,0,0,0.1-0.1,0.1L46.8,45c0.4,0,0.6,0.1,0.8,0.3c0.3,0.3,0.4,0.9,0.2,1.6c-0.4,2.3-1.1,11.1-1.1,11.2
				c0,0-0.1,1.6,0.7,2.4c0.4,0.4,0.9,0.5,1.5,0.5c2-0.2,2-0.5,2.1-1.5c0.1-1,0.8-8.1,1-9.8c0.1-0.5,0.3-1.9-0.1-2.3
				c-0.2-0.3-0.7-0.2-1.3,0.3L49.2,49c0,0-0.1,0-0.1,0c0,0-0.1-0.1-0.1-0.1V48c0,0,0-0.1,0.1-0.1l6.5-5.1c0,0,0.1,0,0.1,0
				c0,0,0.1,0.1,0.1,0.1v0.9c0,0,0,0.1-0.1,0.1l-1.6,1.2c0.1,0,0.2,0,0.2,0c0.4,0,0.7,0.1,0.9,0.4c0.4,0.4,0.5,1.2,0.3,2.4
				c-0.3,2.3-1.1,10.2-1.1,10.3c0,0-0.1,1.6,0.7,2.4c0.4,0.4,0.9,0.5,1.5,0.5c2-0.2,4.2-2.3,4.2-3.4c0-0.3,0.7-9.3,0.1-10.1
				c-0.4-0.4-1-0.3-1.9,0.4l-1.6,1.2c0,0-0.1,0-0.1,0c0,0-0.1-0.1-0.1-0.1v-0.9c0,0,0-0.1,0.1-0.1l7-5.3c0,0,0.1,0,0.1,0
				s0.1,0.1,0.1,0.1v0.8c0,0,0,0.1-0.1,0.1l-1.6,1.2c0.5,0.1,0.9,0.3,1.2,0.6C64.9,46.5,64.8,47.7,64.8,47.8z"/>
		</g>
	</g>
	<g>
		<g>
			<path d="M114.1,63.8c-0.4,1.1-0.4,1.4-0.4,1.7c0,0.2,0.1,0.3,0.2,0.3c0.2,0,0.6-0.4,1.2-1.4c0.5-0.7,0.4-1,0.6-1
				c0.1,0,0.1,0.1,0.1,0.2c0,0.6-1.8,3.5-3.1,3.5c-0.5,0-0.5-0.3-0.5-0.7c0-0.7,0.4-1.7,1.2-4l0,0c-0.7,1.1-3.1,4.8-4.6,4.8
				c-0.9,0-1.2-0.7-1.2-1.8c0-3.4,3.6-7.5,6-7.5c0.5,0,0.9,0.2,1.3,0.5l0.2-0.5c0.1-0.2,0.1-0.2,0.3-0.2h0.6c0.1,0,0.2,0,0.2,0.1
				c0,0.1,0,0.2-0.1,0.3L114.1,63.8z M109.4,66c1.5,0,5-5.6,5-6.9c0-0.6-0.4-0.9-0.9-0.9c-2,0-4.7,4.9-4.7,7
				C108.8,65.6,108.9,66,109.4,66z"/>
			<path d="M128.3,66.7c1,0,1.5-0.9,1.7-2c0.2-0.8,0.2-1,0.3-1c0.1,0,0.2,0,0.2,0.4l0,1.9c0,0.3,0,0.4-0.2,0.5
				c-0.3,0.3-1.2,0.5-1.9,0.5c-2.1,0-3.7-1.9-3.7-5.1c0-3.1,1.5-5.1,3.7-5.1c0.9,0,1.7,0.3,1.9,0.5c0.1,0.1,0.1,0.2,0.1,1.7
				c0,0.7,0,0.7-0.1,0.7c-0.1,0-0.2,0-0.4-0.8c-0.4-1.1-0.9-1.7-1.7-1.7c-1,0-2.3,1.2-2.3,4.5C125.9,65.5,127.1,66.7,128.3,66.7z"/>
			<path d="M134.6,63.4c-0.2,0-0.3,0-0.5,0.8c-0.3,1.4-0.4,1.7-0.4,1.9c0,0.2,0.1,0.4,0.4,0.4c0.3,0,0.5,0,0.5,0.2
				c0,0.1-0.1,0.2-0.3,0.2c-0.3,0-0.6-0.1-0.9-0.1c-0.7,0-0.8,0.1-0.9,0.1c-0.1,0-0.2-0.1-0.2-0.2c0-0.3,0.5-0.1,0.6-0.5
				c0.9-2.6,1.6-5.9,2.4-8.8c0.1-0.3,0.1-0.5,0.3-0.5c0.2,0,0.2,0.1,0.3,0.4c0.8,2.7,1.3,4.6,2.4,8.6c0.1,0.3,0.2,0.5,0.4,0.6
				c0.2,0.1,0.5,0.1,0.5,0.2c0,0.1-0.1,0.1-0.3,0.1c-0.3,0-0.6-0.1-0.9-0.1c-0.4,0-0.8,0.1-1.1,0.1c-0.1,0-0.3,0-0.3-0.2
				c0-0.1,0.2-0.2,0.4-0.2c0.2,0,0.4-0.1,0.4-0.4c0-0.2-0.1-0.6-0.5-2c-0.2-0.6-0.2-0.8-0.5-0.8H134.6z M135.2,59.9
				c-0.6,2.5-0.7,3-0.7,3c0,0.1,0,0.1,0.9,0.1c1.1,0,1.1,0,1.1-0.1c0-0.2-0.3-1.2-0.8-3.2c-0.1-0.2-0.1-0.3-0.2-0.3
				C135.3,59.3,135.3,59.4,135.2,59.9z"/>
			<path d="M144.9,63.5c0.1,0.4,0.2,0.8,0.3,0.8c0.1,0,0.2-0.4,0.3-0.6l1.8-6.2c0.1-0.4,0.2-0.4,0.3-0.4h0.3c0.5,0,1,0,1.2,0
				c0.1,0,0.2,0.1,0.2,0.2c0,0.2-0.1,0.1-0.7,0.3c-0.1,0-0.2,0.2-0.2,0.9c0,1.1,0.2,5.5,0.3,7.2c0,0.4,0.2,0.7,0.4,0.7
				c0.4,0.1,0.5,0.1,0.5,0.2c0,0.2-0.1,0.2-0.3,0.2c-0.1,0-0.4-0.1-1.1-0.1c-0.6,0-1.1,0.1-1.2,0.1c-0.2,0-0.3-0.1-0.3-0.2
				c0-0.1,0.1-0.2,0.6-0.2c0.4-0.1,0.5-0.2,0.5-0.8c0-1.1-0.1-2.9-0.2-5.8c0-1,0-1.3-0.1-1.3c-0.2,0-0.1,0.3-1.8,5.9
				c-0.6,2.1-0.5,2.5-0.8,2.5c-0.2,0-0.1-0.2-1.3-4.4c-1.1-3.7-1.1-3.9-1.2-3.9c-0.2,0-0.3,4.5-0.3,5.9c0,1.8,0.1,1.9,0.4,2
				c0.2,0.1,0.7,0,0.7,0.2c0,0.1,0,0.2-0.3,0.2c-0.3,0-0.4-0.1-1.1-0.1c-0.6,0-0.8,0.1-1,0.1c-0.1,0-0.2,0-0.2-0.2
				c0-0.2,0.2-0.2,0.5-0.2c0.4-0.1,0.4-0.6,0.5-1.4c0.1-1.5,0.2-6.2,0.2-6.7c0-0.5,0-0.7-0.4-0.8c-0.3-0.1-0.6-0.1-0.6-0.2
				c0-0.1,0.1-0.2,0.2-0.2c0.4,0,0.7,0,1.3,0h0.3c0.3,0,0.3,0,0.4,0.2L144.9,63.5z"/>
			<path d="M152.9,58.3c0-0.5-0.1-0.7-0.4-0.7c-0.5-0.1-0.6-0.1-0.6-0.2c0-0.1,0-0.2,0.2-0.2c0.4,0,0.9,0.1,1.3,0.1
				c0.6,0,1.2-0.1,1.8-0.1c1.6,0,2.9,1,2.9,2.8c0,1.5-1.2,2.6-2.7,2.6c-0.8,0-1-0.2-1.2-0.2c-0.1,0-0.2,0.1-0.2,0.2v3.1
				c0,0.5,0.1,0.7,0.4,0.8c0.5,0.1,0.8,0.1,0.8,0.2c0,0.1-0.1,0.2-0.3,0.2c-0.2,0-0.5-0.1-1.4-0.1c-0.9,0-1.1,0.1-1.3,0.1
				c-0.2,0-0.3,0-0.3-0.2c0-0.2,0.1-0.2,0.6-0.3c0.3,0,0.4-0.2,0.4-0.6V58.3z M153.9,61.5c0,0.2,0.2,0.6,0.9,0.6
				c1.4,0,2.1-0.9,2.1-2.3c0-1.4-0.7-2.3-2.1-2.3c-0.6,0-0.8,0.2-0.8,0.5V61.5z"/>
			<path d="M161.4,63.4c-0.2,0-0.3,0-0.5,0.8c-0.3,1.4-0.4,1.7-0.4,1.9c0,0.2,0.1,0.4,0.4,0.4c0.3,0,0.5,0,0.5,0.2
				c0,0.1-0.1,0.2-0.3,0.2c-0.3,0-0.6-0.1-0.9-0.1c-0.7,0-0.8,0.1-0.9,0.1c-0.1,0-0.2-0.1-0.2-0.2c0-0.3,0.5-0.1,0.6-0.5
				c0.9-2.6,1.6-5.9,2.4-8.8c0.1-0.3,0.1-0.5,0.3-0.5c0.2,0,0.2,0.1,0.3,0.4c0.8,2.7,1.3,4.6,2.4,8.6c0.1,0.3,0.2,0.5,0.4,0.6
				c0.2,0.1,0.5,0.1,0.5,0.2c0,0.1-0.1,0.1-0.3,0.1c-0.3,0-0.6-0.1-0.9-0.1c-0.4,0-0.8,0.1-1.1,0.1c-0.1,0-0.3,0-0.3-0.2
				c0-0.1,0.2-0.2,0.4-0.2c0.2,0,0.4-0.1,0.4-0.4c0-0.2-0.1-0.6-0.5-2c-0.2-0.6-0.2-0.8-0.5-0.8H161.4z M162,59.9
				c-0.6,2.5-0.7,3-0.7,3c0,0.1,0,0.1,0.9,0.1c1.1,0,1.1,0,1.1-0.1c0-0.2-0.3-1.2-0.8-3.2c-0.1-0.2-0.1-0.3-0.2-0.3
				C162.1,59.3,162.1,59.4,162,59.9z"/>
			<path d="M169.9,65.6c0,0.4,0.1,0.7,0.5,0.8c0.3,0.1,0.6,0.1,0.6,0.3c0,0.1-0.1,0.1-0.3,0.1c-0.1,0-0.2-0.1-1.3-0.1
				c-1.1,0-1.1,0.1-1.3,0.1c-0.2,0-0.3,0-0.3-0.2c0-0.2,0.3-0.2,0.6-0.3c0.5-0.1,0.5-0.2,0.5-0.7v-7.6c0-0.4-0.1-0.5-0.4-0.6
				c-0.5-0.1-0.6,0-0.6-0.2c0-0.1,0.1-0.2,0.3-0.2c0.4,0,0.8,0.1,1.3,0.1c0.5,0,1-0.1,1.3-0.1c0.2,0,0.3,0.1,0.3,0.2
				c0,0.2-0.2,0.2-0.7,0.2c-0.3,0-0.4,0.3-0.4,0.6V65.6z"/>
			<path d="M179.8,66.1c0,0.6-1.1,0.9-2.3,0.9c-2,0-3.8-1.8-3.8-4.9c0-3.4,2.1-5.3,4-5.3c1,0,1.6,0.2,1.9,0.4c0.1,0.1,0.1,0.2,0.1,1
				c0,1.3,0,1.3-0.2,1.3c-0.1,0-0.2-0.2-0.4-0.7c-0.4-1.1-0.8-1.7-1.6-1.7c-1.5,0-2.6,2.3-2.6,4.6c0,3.1,1.1,4.8,2.7,4.8
				c0.7,0,1.1-0.3,1.1-1.2v-1.9c0-0.8-0.1-0.9-0.5-1c-0.4,0-0.6,0-0.6-0.3c0-0.1,0.1-0.2,0.3-0.2c0.3,0,0.7,0.1,1.3,0.1
				c0.6,0,0.9-0.1,1.1-0.1c0.2,0,0.3,0,0.3,0.1c0,0.2-0.1,0.2-0.5,0.3c-0.2,0.1-0.3,0.1-0.3,0.7V66.1z"/>
			<path d="M189.2,66.7c0,0.4,0,0.4-0.2,0.4c-0.2,0-0.2-0.2-2.5-4.5c-2.1-3.8-2.1-4.1-2.2-4.1c-0.1,0-0.1,0-0.1,0.3v5.4
				c0,1.5,0.1,2,0.5,2.1c0.4,0.1,0.8,0,0.8,0.3c0,0.1-0.1,0.2-0.2,0.2c-0.2,0-0.2-0.1-1.1-0.1c-0.8,0-1,0.1-1.2,0.1
				c-0.1,0-0.2-0.1-0.2-0.2c0-0.2,0.5-0.2,0.7-0.3c0.3-0.1,0.4-0.4,0.4-0.9v-7.2c0-0.5-0.1-0.8-0.4-0.8c-0.4-0.1-0.5,0-0.5-0.2
				c0-0.2,0.2-0.2,0.3-0.2c0.3,0,0.8,0,1.1,0l0.3,0c0.2,0,0.3,0.3,0.5,0.7l2.2,4.2c1.3,2.5,1.3,2.5,1.4,2.5c0.1,0,0.1-0.1,0.1-0.2
				v-5.7c0-0.9-0.2-1.1-0.5-1.1c-0.3,0-0.5-0.1-0.5-0.2c0-0.1,0.1-0.2,0.2-0.2c0.2,0,0.4,0.1,1.1,0.1c0.3,0,0.6-0.1,0.9-0.1
				c0.2,0,0.2,0,0.2,0.2c0,0.2-0.2,0.2-0.5,0.2c-0.4,0.1-0.4,0.3-0.4,0.8V66.7z"/>
			<path d="M199.5,58.4l0.1-0.5h1.4l0.2-0.7c0.9-3.3,2.3-4.4,3.9-4.4c0.6,0,1.1,0.3,1.1,0.9c0,0.5-0.4,0.8-0.7,0.8
				c-0.5,0-0.7-0.3-0.7-0.7c0-0.3-0.1-0.5-0.3-0.5c-0.7,0-1.4,1-1.9,2.9l-0.4,1.7h1.6l-0.1,0.5h-1.6l-1.1,4.5
				c-1.3,5.2-2.1,8.1-4.6,8.1c-0.6,0-1.2-0.3-1.2-1.1c0-0.5,0.3-0.7,0.6-0.7c0.4,0,0.6,0.3,0.6,0.8c0,0.5,0.1,0.7,0.5,0.7
				c1,0,1.2-1,2.9-7.5l1.2-4.6H199.5z"/>
			<path d="M209.2,57.6c1.5,0,2.4,1.3,2.4,3.5c0,2.8-2,6.1-4.4,6.1c-1.5,0-2.4-1.3-2.4-3.4C204.8,60.8,206.8,57.6,209.2,57.6z
				 M207.3,66.6c1.6,0,3.3-3.9,3.3-6.3c0-1.6-0.5-2.3-1.4-2.3c-1.6,0-3.3,3.9-3.3,6.3C205.9,66,206.4,66.6,207.3,66.6z"/>
			<path d="M214.2,66.8c0.5-1.8,2-7.1,2-7.7c0-0.2,0-0.3-0.2-0.3c-0.3,0-0.6,0.4-1,1.1c-0.6,0.9-0.4,1.1-0.7,1.1
				c-0.1,0-0.2-0.1-0.2-0.2c0-0.3,1.4-3.1,2.6-3.1c0.5,0,0.8,0.3,0.8,0.8c0,0.4-0.2,1.3-0.8,3.5l0,0c1.5-3.4,2.6-4.5,3.4-4.5
				c0.5,0,0.7,0.4,0.7,1c0,1.1-0.7,1.9-1.1,1.9c-0.3,0-0.5-0.1-0.5-0.5c0-0.5,0.3-0.6,0.3-1c0-0.2-0.1-0.3-0.2-0.3
				c-0.4,0-2.1,2.8-3.6,7.5c-0.2,0.6-0.2,0.6-0.4,0.6H214.2z"/>
			<path d="M228.2,58.3c0-0.5-0.1-0.7-0.4-0.7c-0.5-0.1-0.6-0.1-0.6-0.2c0-0.1,0-0.2,0.2-0.2c0.4,0,0.9,0.1,1.3,0.1
				c0.6,0,1.2-0.1,1.8-0.1c1.6,0,2.9,1,2.9,2.8c0,1.5-1.2,2.6-2.7,2.6c-0.8,0-1-0.2-1.2-0.2c-0.1,0-0.2,0.1-0.2,0.2v3.1
				c0,0.5,0.1,0.7,0.4,0.8c0.5,0.1,0.8,0.1,0.8,0.2c0,0.1-0.1,0.2-0.3,0.2c-0.2,0-0.5-0.1-1.4-0.1c-0.9,0-1.1,0.1-1.3,0.1
				c-0.2,0-0.3,0-0.3-0.2c0-0.2,0.1-0.2,0.6-0.3c0.3,0,0.4-0.2,0.4-0.6V58.3z M229.2,61.5c0,0.2,0.2,0.6,0.9,0.6
				c1.4,0,2.1-0.9,2.1-2.3c0-1.4-0.7-2.3-2.1-2.3c-0.6,0-0.8,0.2-0.8,0.5V61.5z"/>
			<path d="M236.7,58c0-0.3-0.1-0.5-0.3-0.5c-0.4-0.1-0.6,0-0.6-0.2c0-0.1,0.1-0.2,0.4-0.2c0.4,0,1,0.1,2.3,0.1
				c1.5,0,2.3-0.1,2.6-0.1s0.4,0,0.4,0.7c0,1.7,0,1.8-0.2,1.8c-0.1,0-0.1,0-0.3-0.4c-0.4-1.3-1-1.7-2.3-1.7c-0.9,0-1,0.1-1,0.4v3.4
				c0,0.2,0,0.3,0.7,0.3c1,0,1.3-0.2,1.5-0.7c0.2-0.6,0.2-0.6,0.3-0.6c0.1,0,0.1,0.1,0.1,0.3c0,0.3-0.1,0.6-0.1,1.2
				c0,0.5,0.1,1,0.1,1.5c0,0.2-0.1,0.2-0.2,0.2c-0.1,0-0.2-0.1-0.3-0.5c-0.2-0.8-0.5-1.1-1.3-1.1c-0.8,0-0.9,0-0.9,0.2v3.4
				c0,0.7,0.4,1.1,1.4,1.1c1.5,0,1.9-0.6,2.2-1.9c0.1-0.5,0.2-0.5,0.3-0.5c0.1,0,0.1,0,0.1,1.6c0,1.2,0,1.2-0.4,1.2
				c-0.9,0-2.1-0.1-3.2-0.1c-0.8,0-1.3,0.1-1.9,0.1c-0.3,0-0.5,0-0.5-0.2c0-0.1,0.1-0.2,0.4-0.2c0.5-0.1,0.6-0.2,0.6-0.8V58z"/>
			<path d="M245.8,63.4c-0.2,0-0.3,0-0.5,0.8c-0.3,1.4-0.4,1.7-0.4,1.9c0,0.2,0.1,0.4,0.4,0.4c0.3,0,0.5,0,0.5,0.2
				c0,0.1-0.1,0.2-0.3,0.2c-0.3,0-0.6-0.1-0.9-0.1c-0.7,0-0.8,0.1-0.9,0.1c-0.1,0-0.2-0.1-0.2-0.2c0-0.3,0.5-0.1,0.6-0.5
				c0.9-2.6,1.6-5.9,2.4-8.8c0.1-0.3,0.1-0.5,0.3-0.5c0.2,0,0.2,0.1,0.3,0.4c0.8,2.7,1.3,4.6,2.4,8.6c0.1,0.3,0.2,0.5,0.4,0.6
				c0.2,0.1,0.5,0.1,0.5,0.2c0,0.1-0.1,0.1-0.3,0.1c-0.3,0-0.6-0.1-0.9-0.1c-0.4,0-0.8,0.1-1.1,0.1c-0.1,0-0.3,0-0.3-0.2
				c0-0.1,0.2-0.2,0.4-0.2c0.2,0,0.4-0.1,0.4-0.4c0-0.2-0.1-0.6-0.5-2c-0.2-0.6-0.2-0.8-0.5-0.8H245.8z M246.4,59.9
				c-0.6,2.5-0.7,3-0.7,3c0,0.1,0,0.1,0.9,0.1c1.1,0,1.1,0,1.1-0.1c0-0.2-0.3-1.2-0.8-3.2c-0.1-0.2-0.1-0.3-0.2-0.3
				C246.5,59.3,246.5,59.4,246.4,59.9z"/>
			<path d="M255.7,66.7c1,0,1.5-0.9,1.7-2c0.2-0.8,0.2-1,0.3-1c0.1,0,0.2,0,0.2,0.4l0,1.9c0,0.3,0,0.4-0.2,0.5
				c-0.3,0.3-1.2,0.5-1.9,0.5c-2.1,0-3.7-1.9-3.7-5.1c0-3.1,1.5-5.1,3.7-5.1c0.9,0,1.7,0.3,1.9,0.5c0.1,0.1,0.1,0.2,0.1,1.7
				c0,0.7,0,0.7-0.1,0.7c-0.1,0-0.2,0-0.4-0.8c-0.4-1.1-0.9-1.7-1.7-1.7c-1,0-2.3,1.2-2.3,4.5C253.3,65.5,254.5,66.7,255.7,66.7z"/>
			<path d="M261.5,58c0-0.3-0.1-0.5-0.3-0.5c-0.4-0.1-0.6,0-0.6-0.2c0-0.1,0.1-0.2,0.4-0.2c0.4,0,1,0.1,2.3,0.1
				c1.5,0,2.3-0.1,2.6-0.1s0.4,0,0.4,0.7c0,1.7,0,1.8-0.2,1.8c-0.1,0-0.1,0-0.3-0.4c-0.4-1.3-1-1.7-2.3-1.7c-0.9,0-1,0.1-1,0.4v3.4
				c0,0.2,0,0.3,0.7,0.3c1,0,1.3-0.2,1.5-0.7c0.2-0.6,0.2-0.6,0.3-0.6c0.1,0,0.1,0.1,0.1,0.3c0,0.3-0.1,0.6-0.1,1.2
				c0,0.5,0.1,1,0.1,1.5c0,0.2-0.1,0.2-0.2,0.2c-0.1,0-0.2-0.1-0.3-0.5c-0.2-0.8-0.5-1.1-1.3-1.1c-0.8,0-0.9,0-0.9,0.2v3.4
				c0,0.7,0.4,1.1,1.4,1.1c1.5,0,1.9-0.6,2.2-1.9c0.1-0.5,0.2-0.5,0.3-0.5c0.1,0,0.1,0,0.1,1.6c0,1.2,0,1.2-0.4,1.2
				c-0.9,0-2.1-0.1-3.2-0.1c-0.8,0-1.3,0.1-1.9,0.1c-0.3,0-0.5,0-0.5-0.2c0-0.1,0.1-0.2,0.4-0.2c0.5-0.1,0.6-0.2,0.6-0.8V58z"/>
			<path d="M278.1,65.6c0,0.4,0.1,0.7,0.5,0.8c0.3,0.1,0.6,0.1,0.6,0.3c0,0.1-0.1,0.1-0.3,0.1c-0.1,0-0.2-0.1-1.3-0.1
				c-1.1,0-1.1,0.1-1.3,0.1c-0.2,0-0.3,0-0.3-0.2c0-0.2,0.3-0.2,0.6-0.3c0.5-0.1,0.5-0.2,0.5-0.7v-7.6c0-0.4-0.1-0.5-0.4-0.6
				c-0.5-0.1-0.6,0-0.6-0.2c0-0.1,0.1-0.2,0.3-0.2c0.4,0,0.8,0.1,1.3,0.1c0.5,0,1-0.1,1.3-0.1c0.2,0,0.3,0.1,0.3,0.2
				c0,0.2-0.2,0.2-0.7,0.2c-0.3,0-0.4,0.3-0.4,0.6V65.6z"/>
			<path d="M288,66.7c0,0.4,0,0.4-0.2,0.4c-0.2,0-0.2-0.2-2.5-4.5c-2.1-3.8-2.1-4.1-2.2-4.1c-0.1,0-0.1,0-0.1,0.3v5.4
				c0,1.5,0.1,2,0.5,2.1c0.4,0.1,0.8,0,0.8,0.3c0,0.1-0.1,0.2-0.2,0.2c-0.2,0-0.2-0.1-1.1-0.1c-0.8,0-1,0.1-1.2,0.1
				c-0.1,0-0.2-0.1-0.2-0.2c0-0.2,0.5-0.2,0.7-0.3c0.3-0.1,0.4-0.4,0.4-0.9v-7.2c0-0.5-0.1-0.8-0.4-0.8c-0.4-0.1-0.5,0-0.5-0.2
				c0-0.2,0.2-0.2,0.3-0.2c0.3,0,0.8,0,1.1,0l0.3,0c0.2,0,0.3,0.3,0.5,0.7l2.2,4.2c1.3,2.5,1.3,2.5,1.4,2.5c0.1,0,0.1-0.1,0.1-0.2
				v-5.7c0-0.9-0.2-1.1-0.5-1.1c-0.3,0-0.5-0.1-0.5-0.2c0-0.1,0.1-0.2,0.2-0.2c0.2,0,0.4,0.1,1.1,0.1c0.3,0,0.6-0.1,0.9-0.1
				c0.2,0,0.2,0,0.2,0.2c0,0.2-0.2,0.2-0.5,0.2c-0.4,0.1-0.4,0.3-0.4,0.8V66.7z"/>
			<path d="M300.7,66.7c1,0,1.5-0.9,1.7-2c0.2-0.8,0.2-1,0.3-1c0.1,0,0.2,0,0.2,0.4l0,1.9c0,0.3,0,0.4-0.2,0.5
				c-0.3,0.3-1.2,0.5-1.9,0.5c-2.1,0-3.7-1.9-3.7-5.1c0-3.1,1.5-5.1,3.7-5.1c0.9,0,1.7,0.3,1.9,0.5c0.1,0.1,0.1,0.2,0.1,1.7
				c0,0.7,0,0.7-0.1,0.7c-0.1,0-0.2,0-0.4-0.8c-0.4-1.1-0.9-1.7-1.7-1.7c-1,0-2.3,1.2-2.3,4.5C298.3,65.5,299.5,66.7,300.7,66.7z"/>
			<path d="M309,56.9c1.8,0,3.4,2.2,3.4,5.1c0,2.9-1.6,5.1-3.4,5.1c-1.8,0-3.4-2.2-3.4-5.1C305.6,59.1,307.3,56.9,309,56.9z
				 M309,66.7c1,0,2.2-1.2,2.2-4.7c0-3.5-1.2-4.7-2.2-4.7s-2.2,1.2-2.2,4.7C306.9,65.5,308,66.7,309,66.7z"/>
			<path d="M321.1,66.7c0,0.4,0,0.4-0.2,0.4c-0.2,0-0.2-0.2-2.5-4.5c-2.1-3.8-2.1-4.1-2.2-4.1c-0.1,0-0.1,0-0.1,0.3v5.4
				c0,1.5,0.1,2,0.5,2.1c0.4,0.1,0.8,0,0.8,0.3c0,0.1-0.1,0.2-0.2,0.2c-0.2,0-0.2-0.1-1.1-0.1c-0.8,0-1,0.1-1.2,0.1
				c-0.1,0-0.2-0.1-0.2-0.2c0-0.2,0.5-0.2,0.7-0.3c0.3-0.1,0.4-0.4,0.4-0.9v-7.2c0-0.5-0.1-0.8-0.4-0.8c-0.4-0.1-0.5,0-0.5-0.2
				c0-0.2,0.2-0.2,0.3-0.2c0.3,0,0.8,0,1.1,0l0.3,0c0.2,0,0.3,0.3,0.5,0.7l2.2,4.2c1.3,2.5,1.3,2.5,1.4,2.5c0.1,0,0.1-0.1,0.1-0.2
				v-5.7c0-0.9-0.2-1.1-0.5-1.1c-0.3,0-0.5-0.1-0.5-0.2c0-0.1,0.1-0.2,0.2-0.2c0.2,0,0.4,0.1,1.1,0.1c0.3,0,0.6-0.1,0.9-0.1
				c0.2,0,0.2,0,0.2,0.2c0,0.2-0.2,0.2-0.5,0.2c-0.4,0.1-0.4,0.3-0.4,0.8V66.7z"/>
			<path d="M330.5,66.1c0,0.6-1.1,0.9-2.3,0.9c-2,0-3.8-1.8-3.8-4.9c0-3.4,2.1-5.3,4-5.3c1,0,1.6,0.2,1.9,0.4c0.1,0.1,0.1,0.2,0.1,1
				c0,1.3,0,1.3-0.2,1.3c-0.1,0-0.2-0.2-0.4-0.7c-0.4-1.1-0.8-1.7-1.6-1.7c-1.5,0-2.6,2.3-2.6,4.6c0,3.1,1.1,4.8,2.7,4.8
				c0.7,0,1.1-0.3,1.1-1.2v-1.9c0-0.8-0.1-0.9-0.5-1c-0.4,0-0.6,0-0.6-0.3c0-0.1,0.1-0.2,0.3-0.2c0.3,0,0.7,0.1,1.3,0.1
				c0.6,0,0.9-0.1,1.1-0.1c0.2,0,0.3,0,0.3,0.1c0,0.2-0.1,0.2-0.5,0.3c-0.2,0.1-0.3,0.1-0.3,0.7V66.1z"/>
			<path d="M337.3,56.9c1.8,0,3.4,2.2,3.4,5.1c0,2.9-1.6,5.1-3.4,5.1c-1.8,0-3.4-2.2-3.4-5.1C333.9,59.1,335.5,56.9,337.3,56.9z
				 M337.3,66.7c1,0,2.2-1.2,2.2-4.7c0-3.5-1.2-4.7-2.2-4.7c-1,0-2.2,1.2-2.2,4.7C335.1,65.5,336.3,66.7,337.3,66.7z"/>
		</g>
		<g>
			<g>
				<g>
					<path d="M111.9,31.6V35h4.4l0.6,3.5h-5v6.4h-4.1V28.1h10.1v3.5H111.9z"/>
					<path d="M131.4,45.1l-1.3-3.7h-5.8l-1.2,3.5h-4.1l6-16.9h4.6l5.8,16.4L131.4,45.1z M127.2,32.3l-1.9,5.8h3.8L127.2,32.3z"/>
					<path d="M139.3,44.9V28.1h4.2v13.2h5.2l0.6,3.6H139.3z"/>
					<path d="M153,44.9V28.1h4.2v13.2h5.2l0.6,3.6H153z"/>
					<path d="M166.8,44.9V28.1h4.2v16.8H166.8z"/>
					<path d="M186.5,44.9l-6.6-10.1v10.1h-3.9V28.1h4l6.2,9.4v-9.4h3.9v16.8H186.5z"/>
					<path d="M233.6,44.9h-4.2l-2.9-10.8l-2.9,10.8h-4.2l-3.5-12.8l3.6-4.2l2.5,10.7l2.7-10.5h4.2l2.7,10.5l2.4-10.5h4.1L233.6,44.9
						z"/>
					<path d="M252,44.9v-6.9h-5.8v6.9H242V28.1h4.2v6.3h5.8v-6.3h4.2v16.8H252z"/>
					<path d="M261.2,44.9V28.1h4.2v16.8H261.2z"/>
					<path d="M275.7,45.1c-2.3,0-4.2-0.5-5.9-1.3l0.6-3.6c1.7,0.9,3.7,1.6,5.3,1.6c1.2,0,2-0.5,2-1.5c0-1-0.5-1.4-2.8-2.3
						c-3.4-1.3-4.8-2.4-4.8-5.2c0-3.2,2.5-5,5.7-5c2.2,0,3.6,0.4,5.1,1.1l-0.6,3.5c-1.5-0.9-3.1-1.4-4.4-1.4c-1.3,0-1.9,0.5-1.9,1.3
						c0,0.9,0.5,1.3,2.6,2.1c3.7,1.3,5.1,2.6,5.1,5.3C281.7,43.5,279,45.1,275.7,45.1z"/>
					<path d="M293.4,31.7v13.3h-4.2V31.7h-4.6v-3.5h13.3l0.6,3.5H293.4z"/>
					<path d="M302.2,44.9V28.1h4.2v13.2h5.2l0.6,3.6H302.2z"/>
					<path d="M316,44.9V28.1h10.5v3.3H320v3.1h4.9l0.5,3.4H320v3.6h6.6v3.3H316z"/>
					<path d="M336.1,45.1c-2.3,0-4.2-0.5-5.9-1.3l0.6-3.6c1.7,0.9,3.7,1.6,5.3,1.6c1.2,0,2-0.5,2-1.5c0-1-0.5-1.4-2.8-2.3
						c-3.4-1.3-4.8-2.4-4.8-5.2c0-3.2,2.5-5,5.7-5c2.2,0,3.6,0.4,5.1,1.1l-0.6,3.5c-1.5-0.9-3.1-1.4-4.4-1.4c-1.3,0-1.9,0.5-1.9,1.3
						c0,0.9,0.5,1.3,2.6,2.1c3.7,1.3,5.1,2.6,5.1,5.3C342.1,43.5,339.4,45.1,336.1,45.1z"/>
				</g>
			</g>
			<g>
				<path d="M208.9,35.3h-7l0.5,3.1h2.9v3c-0.7,0.4-1.3,0.5-2.3,0.5c-2.9,0-4.4-2.2-4.4-5.4c0-3.1,1.4-5.3,4.3-5.3
					c1.7,0,3.2,0.6,4.5,1.4l0.6-3.6c-1.3-0.8-3.1-1.2-5.1-1.2c-5.2,0-8.4,3.5-8.4,8.7c0,5.2,2.9,8.7,8.3,8.7c0.7,0,1.4-0.1,2.1-0.2
					l4.1-4.8V35.3z"/>
			</g>
		</g>
	</g>
</g>
</svg>
